<?xml version="1.0" ?><!-- Uploaded to: SVG Repo, www.svgrepo.com, Generator: SVG Repo Mixer Tools -->
<svg fill="#000000" width="800px" height="800px" viewBox="0 0 512 512" id="icon" version="1.1" xml:space="preserve" xmlns="http://www.w3.org/2000/svg" xmlns:xlink="http://www.w3.org/1999/xlink"><path d="M345.928009,236.1103973c0.103302,0.0052032,0.2064819,0.0077057,0.3051758,0.0077057  c1.401825,0,2.7524109-0.5561981,3.7456055-1.5521088l16.8969116-16.8969879l0.0010071-0.0008087l0.0014954-0.0016937  l51.8703003-51.8727112c0.0021973-0.0018921,0.0046997-0.0022888,0.0065918-0.0041962  c0.0021973-0.0018005,0.0025024-0.0043945,0.0039063-0.0063934l13.0292969-13.0290985  c5.3547974-5.3523102,8.3039856-12.4947052,8.3039856-20.1081085c0-7.6133957-2.9491882-14.7560959-8.3039856-20.1083984  l-23.7640991-23.7634964c-5.3496094-5.3523026-12.4946899-8.3014984-20.105011-8.3014984  c-7.6161804,0-14.7612,2.9491959-20.1112976,8.3014984l-29.1699829,29.1696014  c-0.0021973,0.0015945-0.0043945,0.0015945-0.0053101,0.0032959c-0.0014954,0.0016022-0.0014954,0.0031052-0.0032043,0.0047989  l-52.6356812,52.6340027c-1.071106,1.0686035-1.6296997,2.5404968-1.5418091,4.0485992l2.9320984,51.0522003l-31.3764038,31.3761139  l-31.3744965-31.3761139l2.927002-51.0522003c0.0877991-1.5081024-0.4710083-2.9799957-1.5418091-4.0485992l-16.8939972-16.8941956  c-0.0014954-0.0019073-0.0021973-0.004303-0.003891-0.0061035c-0.0020142-0.0021057-0.0039063-0.0023041-0.0064087-0.0043945  l-35.7229004-35.7239075c-0.0028992-0.0030975-0.0036011-0.0070953-0.0065918-0.0102005  c-0.0034027-0.0032959-0.007309-0.0035019-0.0105133-0.0067978l-16.1310883-16.1317978l-0.0010071-0.0012054l-0.0014038-0.0010986  l-13.0314941-13.0319977c-5.3549957-5.3550034-12.4945984-8.3014984-20.1110992-8.3014984  c-7.6156998,0-14.7558975,2.9491959-20.1054993,8.3014984l-23.7687988,23.7634964  c-11.0879059,11.0876007-11.0879059,29.1289063,0,40.216507l29.1735992,29.1728973  c0.0007019,0.0009918,0.0007019,0.0016937,0.0007019,0.0016937c0.0024948,0.0018005,0.0024948,0.0018005,0.0024948,0.0018005  l52.6373978,52.635498c0.9988098,0.9959106,2.3440094,1.5521088,3.746109,1.5521088  c0.0981903,0,0.201889-0.0025024,0.3054962-0.0077057l51.0541992-2.9292908l31.3722992,31.3730927l-115.3789063,115.379303  l-12.1069946-12.1069031c-7.305397-7.3106079-19.2054977-7.3106079-26.5110016,0  c-7.3055954,7.3056946-7.3106995,19.2002869,0,26.5162048l31.7002029,31.7002869  c3.6579971,3.6528015,8.4594955,5.4790955,13.260994,5.4790955c4.8011017,0,9.6026001-1.8262939,13.2554016-5.4790955  c7.3105011-7.3105774,7.3105011-19.2003784,0-26.5109863l-12.1069031-12.1065979l115.3789063-115.3793945L371.384491,387.427002  l-12.1029968,12.1051025c-7.3106079,7.3106079-7.3106079,19.2004089,0,26.5109863  c3.6526184,3.65802,8.4541016,5.484314,13.2554016,5.484314c4.8012085,0,9.6025085-1.8315125,13.2556152-5.484314  l31.70578-31.7002869c7.3103027-7.315918,7.3052063-19.2105103,0-26.5162048  c-7.3056946-7.3106079-19.2108765-7.3027039-26.5166016,0l-12.1054993,12.1079102L263.4997864,264.5541992l31.3731995-31.3730927  L345.928009,236.1103973z M375.2995911,96.2657013c6.7001953-6.7025986,18.5173035-6.7130051,25.2331238,0l23.7633972,23.7637024  c3.3527832,3.3527985,5.2001953,7.8330994,5.2001953,12.6165924c0,4.7832031-1.8474121,9.2638092-5.2001953,12.6163025  l-9.2882996,9.2882996l-48.9953003-48.9977951L375.2995911,96.2657013z M358.5209961,113.0447998l48.9951172,48.9976044  l-8.6492004,8.6495972l-48.9956055-48.9979019L358.5209961,113.0447998z M342.3799133,129.1858063l48.9953003,48.9980011  l-28.2456055,28.2453918l-48.9956055-48.9978027L342.3799133,129.1858063z M306.6426086,164.9230042l48.9953003,48.9978027  l-11.4743042,11.4744873l-46.3374023-2.6593933l-2.6592102-46.337204L306.6426086,164.9230042z M87.7153015,145.2622986  c-6.953598-6.956192-6.953598-18.2765961,0-25.2328949l23.7690964-23.7637024  c3.3525009-3.3525009,7.8330002-5.1968994,12.6135025-5.1968994c4.7861023,0,9.2666016,1.8443985,12.6194,5.1968994  l9.2868958,9.2875977l-48.9978943,48.9996033L87.7153015,145.2622986z M104.4982986,162.0444946l48.9977951-48.9990921  l8.6482086,8.6493988l-48.9981003,48.9966049L104.4982986,162.0444946z M120.6381989,178.1828003l48.9974976-48.9960022  L197.8806,157.4333038l-48.9936066,48.9964905L120.6381989,178.1828003z M214.1907043,222.7359009l-46.337204,2.6593933  l-11.4743042-11.4740906l48.9925995-48.9959106l11.4732056,11.4734039L214.1907043,222.7359009z M145.2436981,407.0238953  c3.177002,3.1769104,3.177002,8.3507996,0,11.5274048c-3.1871033,3.1767883-8.3659973,3.1664124-11.5327911,0  l-31.6999054-31.7002869c-3.1772995-3.1818237-3.1772995-8.3557129,0-11.5325012  c3.1764984-3.1766968,8.350296-3.1766968,11.527298,0L145.2436981,407.0238953z M398.4733887,375.318512  c1.5888977-1.5884094,3.6789246-2.3850098,5.7687988-2.3850098c2.0852051,0,4.1755066,0.7966003,5.763916,2.3850098  c3.1767883,3.1767883,3.1767883,8.3506775,0,11.5325012L378.3005066,418.5513  c-3.1766968,3.1767883-8.3504944,3.1767883-11.5273132,0c-3.1767883-3.1766052-3.1767883-8.3504944,0-11.5274048  L398.4733887,375.318512z"/></svg>